<?xml version="1.0" encoding="utf-8"?>
<!-- Generator: Adobe Illustrator 26.4.1, SVG Export Plug-In . SVG Version: 6.00 Build 0)  -->
<svg version="1.1" id="文言_x2B_オブジェクト"
	 xmlns="http://www.w3.org/2000/svg" xmlns:xlink="http://www.w3.org/1999/xlink" x="0px" y="0px" viewBox="0 0 82.79 67.07"
	 style="enable-background:new 0 0 82.79 67.07;" xml:space="preserve">
<style type="text/css">
	.st0{opacity:0.8;}
	.st1{fill:none;stroke:#22AC38;stroke-width:3.0364;stroke-linecap:round;stroke-linejoin:round;stroke-miterlimit:10;}
	.st2{fill:#FACCD0;stroke:#22AC38;stroke-miterlimit:10;}
</style>
<g class="st0">
	<path class="st1" d="M79.8,20.54c0-10.5-17.2-19.02-38.42-19.02c-21.22,0-38.42,8.52-38.42,19.02"/>
	<path class="st1" d="M2.96,52.25c0,10.5,17.2,13.3,38.42,13.3c21.22,0,38.42-2.8,38.42-13.3"/>
	<line class="st1" x1="1.52" y1="31.48" x2="81.28" y2="31.48"/>
	<g>
		<path class="st1" d="M1.52,41c4.43,0,4.43,0.58,8.86,0.58c4.43,0,4.43-0.58,8.86-0.58c4.43,0,4.43,0.58,8.86,0.58
			c4.43,0,4.43-0.58,8.86-0.58c4.43,0,4.43,0.58,8.86,0.58c4.43,0,4.43-0.58,8.86-0.58c4.43,0,4.43,0.58,8.86,0.58
			c4.43,0,4.43-0.58,8.87-0.58c4.43,0,4.43,0.58,8.87,0.58"/>
	</g>
	<path class="st2" d="M23.9,17.77c0,1.44-1.21,2.6-2.69,2.6c-1.48,0-2.69-1.16-2.69-2.6c0-1.45,1.2-2.6,2.69-2.6
		C22.69,15.17,23.9,16.33,23.9,17.77z"/>
	<path class="st2" d="M44.09,17.77c0,1.44-1.21,2.6-2.69,2.6c-1.48,0-2.69-1.16-2.69-2.6c0-1.45,1.2-2.6,2.69-2.6
		C42.88,15.17,44.09,16.33,44.09,17.77z"/>
	<path class="st2" d="M33.99,11.91c0,1.44-1.2,2.61-2.69,2.61c-1.48,0-2.69-1.17-2.69-2.61c0-1.44,1.21-2.61,2.69-2.61
		C32.79,9.3,33.99,10.47,33.99,11.91z"/>
	<path class="st2" d="M54.18,11.91c0,1.44-1.21,2.61-2.69,2.61c-1.48,0-2.68-1.17-2.68-2.61c0-1.44,1.2-2.61,2.68-2.61
		C52.97,9.3,54.18,10.47,54.18,11.91z"/>
	<path class="st2" d="M64.28,17.77c0,1.44-1.21,2.6-2.69,2.6c-1.48,0-2.69-1.16-2.69-2.6c0-1.45,1.21-2.6,2.69-2.6
		C63.07,15.17,64.28,16.33,64.28,17.77z"/>
</g>
</svg>
