<?xml version="1.0" encoding="utf-8"?>
<!-- Generator: Adobe Illustrator 26.4.1, SVG Export Plug-In . SVG Version: 6.00 Build 0)  -->
<svg version="1.1" id="文言_x2B_オブジェクト"
	 xmlns="http://www.w3.org/2000/svg" xmlns:xlink="http://www.w3.org/1999/xlink" x="0px" y="0px" viewBox="0 0 69.07 67.73"
	 style="enable-background:new 0 0 69.07 67.73;" xml:space="preserve">
<style type="text/css">
	.st0{opacity:0.8;}
	.st1{fill:#22AC38;stroke:#22AC38;stroke-width:2.3471;stroke-miterlimit:10;}
	.st2{fill:#22AC38;stroke:#22AC38;stroke-width:1.3654;stroke-linecap:round;stroke-linejoin:round;stroke-miterlimit:10;}
</style>
<g class="st0">
	<path class="st1" d="M21.71,46.51c0,1.89-1.54,3.43-3.43,3.43h-3.43c-1.89,0-3.43-1.54-3.43-3.43V31.69c0-1.89,1.54-3.43,3.43-3.43
		h3.43c1.89,0,3.43,1.54,3.43,3.43V46.51z"/>
	<path class="st2" d="M29.57,59.17c-1.68,0-3.12,1.06-3.68,2.54h-14.4c-0.81,0-1.47-0.66-1.47-1.47l-0.15-9.8H6.94l0.15,9.8
		c0,2.42,1.97,4.4,4.4,4.4h14.46c0.6,1.41,2,2.4,3.63,2.4c2.17,0,3.94-1.76,3.94-3.94C33.51,60.93,31.74,59.17,29.57,59.17z"/>
	<path class="st1" d="M9.38,31.04H6.41c-2.88,0-5.23,2.36-5.23,5.23v5.67c0,2.88,2.36,5.23,5.23,5.23h2.98V31.04z"/>
	<path class="st1" d="M47.36,46.51c0,1.89,1.54,3.43,3.43,3.43h3.43c1.89,0,3.43-1.54,3.43-3.43V31.69c0-1.89-1.54-3.43-3.43-3.43
		h-3.43c-1.89,0-3.43,1.54-3.43,3.43V46.51z"/>
	<path class="st1" d="M59.69,31.04h2.98c2.88,0,5.23,2.36,5.23,5.23v5.67c0,2.88-2.36,5.23-5.23,5.23h-2.98V31.04z"/>
	<path class="st2" d="M9.38,26.7c2-15.94,9.82-23.08,25.14-23.08c15.32,0,23.13,7.14,25.14,23.08h3.15
		C60.68,8.96,51.65,0.68,34.52,0.68C17.39,0.68,8.37,8.96,6.24,26.7H9.38z"/>
</g>
</svg>
