<?xml version="1.0" encoding="utf-8"?>
<!-- Generator: Adobe Illustrator 26.4.1, SVG Export Plug-In . SVG Version: 6.00 Build 0)  -->
<svg version="1.1" id="文言_x2B_オブジェクト"
	 xmlns="http://www.w3.org/2000/svg" xmlns:xlink="http://www.w3.org/1999/xlink" x="0px" y="0px" viewBox="0 0 50.3 63.97"
	 style="enable-background:new 0 0 50.3 63.97;" xml:space="preserve">
<style type="text/css">
	.st0{opacity:0.8;}
	.st1{fill:none;stroke:#FACCD0;stroke-width:2.4881;stroke-linecap:round;stroke-linejoin:round;stroke-miterlimit:10;}
</style>
<g class="st0">
	<g>
		<path class="st1" d="M45,48.8c2.27-6.61,4.89-13.31,3.8-20.21c-0.58-3.68-2.02-7.69-5.4-9.24c-2.15-0.98-4.63-0.74-6.97-0.4
			c-1.97,0.29-4.07,0.7-5.48,2.1c-1.58,1.57-1.92,3.99-1.87,6.22c0.07,3.6,0.88,7.15,1.69,10.66c0.73,3.19,1.72,6.33,2.2,9.57
			C33.18,48.95,44.66,49.76,45,48.8z"/>
		<path class="st1" d="M43.23,56.49c-0.83-1.15-8.59-2.19-9.41-1.1c-1.18,1.56-3.25,6.18,3.35,7.21
			C43.52,63.6,44.46,58.2,43.23,56.49z"/>
	</g>
	<g>
		<path class="st1" d="M5.3,31.38c-2.27-6.61-4.89-13.31-3.8-20.21C2.07,7.5,3.51,3.48,6.9,1.94c2.15-0.98,4.63-0.74,6.97-0.4
			c1.97,0.29,4.07,0.7,5.48,2.1c1.58,1.57,1.92,3.99,1.87,6.22c-0.07,3.6-0.88,7.15-1.69,10.66c-0.73,3.19-1.72,6.33-2.2,9.57
			C17.12,31.54,5.63,32.35,5.3,31.38z"/>
		<path class="st1" d="M7.07,39.08c0.83-1.15,8.59-2.19,9.41-1.1c1.18,1.56,3.25,6.18-3.35,7.21C6.78,46.19,5.83,40.79,7.07,39.08z"
			/>
	</g>
</g>
</svg>
